<svg xmlns="http://www.w3.org/2000/svg" viewBox="0 0 360 220" fill="none">
  <defs>
    <linearGradient id="book" x1="64" y1="49" x2="292" y2="172" gradientUnits="userSpaceOnUse">
      <stop stop-color="#FFB15F"/>
      <stop offset=".55" stop-color="#FF6A00"/>
      <stop offset="1" stop-color="#57E6F2"/>
    </linearGradient>
    <filter id="glow" x="0" y="0" width="360" height="220" filterUnits="userSpaceOnUse">
      <feGaussianBlur stdDeviation="5" result="b"/>
      <feMerge><feMergeNode in="b"/><feMergeNode in="SourceGraphic"/></feMerge>
    </filter>
  </defs>
  <g filter="url(#glow)" stroke="url(#book)" stroke-linecap="round" stroke-linejoin="round">
    <path d="M180 69c-23-20-58-29-95-19v105c34-9 70-2 95 19V69Z" stroke-width="7"/>
    <path d="M180 69c23-20 58-29 95-19v105c-34-9-70-2-95 19V69Z" stroke-width="7"/>
    <path d="M180 69v105" stroke-width="4" opacity=".7"/>
    <path d="M110 79c18-3 34 0 49 7M110 103c18-3 34 0 49 7M201 83c17-7 34-9 51-5M201 108c13-6 27-8 42-6" stroke-width="4" opacity=".7"/>
    <path d="M232 60v43c0 9-8 15-17 15s-16-5-16-12 7-12 16-12c7 0 13 2 17 6" stroke-width="7"/>
    <path d="M79 170c34-8 70-2 101 17 31-19 67-25 101-17" stroke-width="5" opacity=".72"/>
  </g>
</svg>
